<?xml version="1.0" standalone="no"?>
<!DOCTYPE svg PUBLIC "-//W3C//DTD SVG 20010904//EN"
 "http://www.w3.org/TR/2001/REC-SVG-20010904/DTD/svg10.dtd">
<svg version="1.0" xmlns="http://www.w3.org/2000/svg"
 width="355.000000pt" height="444.000000pt" viewBox="0 0 355.000000 444.000000"
 preserveAspectRatio="xMidYMid meet">

<g transform="translate(0.000000,444.000000) scale(0.100000,-0.100000)"
fill="#000000" stroke="none">
<path d="M0 4170 c0 -259 1 -270 20 -280 11 -6 20 -15 20 -20 0 -5 -9 -12 -20
-15 -18 -6 -20 -15 -20 -112 0 -87 3 -110 17 -126 17 -18 17 -19 0 -28 -16 -9
-17 -91 -17 -1366 0 -1279 1 -1357 18 -1369 16 -13 16 -15 -1 -25 -14 -8 -17
-26 -17 -119 0 -101 2 -110 22 -124 l22 -16 -22 -16 c-22 -15 -22 -17 -22
-285 l0 -269 272 0 c268 0 272 0 296 23 l24 22 15 -23 c14 -21 23 -22 124 -22
97 0 109 2 122 20 l14 20 18 -20 c18 -20 31 -20 891 -20 862 0 873 0 887 20
l14 20 18 -20 c16 -18 31 -20 127 -20 106 0 109 0 120 25 l12 26 23 -26 24
-25 272 2 272 3 3 265 3 265 -23 19 -23 18 23 15 c21 14 22 23 22 124 0 92 -3
110 -17 118 -17 10 -17 12 0 25 16 12 17 90 17 1369 0 1275 -1 1357 -17 1366
-17 9 -17 10 0 28 14 16 17 39 17 121 0 93 -2 102 -22 117 l-23 16 23 16 c22
15 22 17 22 284 l0 269 -279 0 c-278 0 -279 0 -294 -22 l-16 -23 -16 23 c-15
20 -24 22 -127 22 -94 0 -113 -3 -124 -17 -13 -17 -15 -17 -28 0 -12 16 -67
17 -891 17 -822 0 -879 -1 -890 -17 -13 -17 -14 -17 -32 0 -16 14 -39 17 -131
17 -102 0 -111 -2 -117 -20 -3 -11 -11 -20 -16 -20 -5 0 -14 9 -21 20 -12 19
-24 20 -290 20 l-278 0 0 -270z m540 200 c6 -12 8 -30 5 -41 -7 -20 -8 -20
-34 5 l-27 26 -197 0 -196 0 -3 -196 -3 -197 24 -19 c23 -17 23 -20 8 -35 -15
-15 -18 -15 -41 1 l-26 16 0 230 0 230 240 0 c231 0 240 -1 250 -20z m290 -1
c9 -15 8 -24 -1 -35 -10 -13 -15 -12 -34 6 -16 15 -35 20 -73 20 l-52 0 -76
-115 -76 -115 -98 0 -99 0 -3 -97 -3 -98 -105 -63 c-57 -34 -108 -66 -113 -71
-4 -4 -10 -30 -12 -56 -2 -40 1 -52 21 -70 l24 -22 -23 -10 c-45 -21 -57 -1
-57 90 l1 82 112 66 112 66 3 107 3 106 110 0 110 0 75 115 75 115 84 0 c75 0
86 -2 95 -21z m1821 -22 c15 -23 47 -75 73 -114 l46 -73 52 0 c39 0 57 5 75
22 28 26 40 17 27 -20 -9 -26 -12 -27 -91 -30 l-82 -3 -27 43 c-69 110 -104
164 -114 176 -8 9 -189 12 -839 12 l-828 0 -71 -112 -70 -113 -79 -3 c-75 -3
-81 -1 -96 21 -9 15 -12 29 -7 38 7 11 14 9 33 -9 20 -19 34 -23 77 -20 l53 3
71 113 71 112 850 0 850 -1 26 -42z m296 -33 c27 -42 60 -94 76 -115 l27 -39
105 0 105 0 0 -103 0 -103 63 -37 c34 -20 88 -52 120 -72 l57 -35 0 -78 c0
-64 -3 -79 -18 -88 -14 -9 -24 -9 -42 1 l-23 13 22 11 c20 11 22 19 19 74 l-3
61 -55 33 c-30 17 -73 42 -95 54 -74 40 -75 42 -75 146 l0 93 -100 0 -100 0
-75 115 -75 115 -52 0 c-38 0 -57 -5 -73 -20 -19 -18 -24 -19 -34 -6 -9 11
-10 20 -1 35 9 19 20 21 95 21 l84 0 48 -76z m553 -153 l0 -229 -24 -15 c-20
-14 -26 -14 -42 -2 -18 14 -18 15 4 30 22 16 22 20 22 216 l0 199 -200 0 -199
0 -25 -26 c-23 -26 -24 -26 -34 -7 -8 15 -7 25 4 41 15 21 21 22 255 22 l239
0 0 -229z m-3021 125 c19 -20 21 -28 12 -45 -11 -20 -20 -21 -136 -21 l-125 0
0 -120 c0 -111 -1 -120 -21 -131 -16 -8 -27 -8 -45 2 -24 12 -24 14 -24 169 0
86 3 160 7 163 3 4 75 7 158 7 147 0 152 -1 174 -24z m286 4 c15 -17 16 -24 7
-45 -9 -20 -19 -25 -46 -25 -46 0 -65 30 -41 66 19 29 55 31 80 4z m1820 0
c15 -17 16 -24 7 -45 l-12 -25 -805 0 -805 0 -12 25 c-9 21 -8 28 7 45 18 20
30 20 810 20 780 0 792 0 810 -20z m280 -4 c24 -36 5 -66 -41 -66 -27 0 -37 5
-46 25 -24 53 55 90 87 41z m543 -138 l3 -157 -27 -17 c-48 -32 -58 -13 -64
122 l-5 119 -124 5 c-140 6 -158 15 -126 64 l18 26 161 -2 161 -3 3 -157z
m-1635 12 l821 0 23 22 c20 19 25 20 33 8 6 -10 4 -22 -4 -35 -13 -20 -25 -20
-868 -23 -832 -2 -855 -2 -872 17 -14 16 -15 23 -6 41 l11 21 20 -25 20 -26
822 0z m-1175 -60 c11 -18 23 -20 122 -20 98 0 110 2 123 20 l14 20 18 -20
c18 -20 31 -20 900 -20 869 0 882 0 900 20 l18 20 14 -20 c13 -18 25 -20 123
-20 99 0 110 2 120 20 6 11 15 20 20 20 5 0 12 -9 15 -20 6 -18 15 -20 101
-20 l94 0 0 -89 c0 -84 2 -90 22 -97 l22 -7 -22 -17 c-20 -17 -22 -27 -22
-126 0 -90 3 -109 17 -119 17 -13 17 -14 0 -32 -16 -18 -17 -102 -17 -1373 0
-1269 1 -1355 17 -1373 17 -18 17 -19 0 -28 -14 -9 -17 -26 -17 -119 0 -102 1
-110 22 -121 l21 -11 -21 -17 c-18 -14 -22 -28 -24 -101 l-3 -85 -90 -3 c-70
-2 -93 -6 -102 -19 -12 -15 -14 -15 -31 0 -28 25 -229 25 -247 0 -13 -17 -14
-17 -32 0 -18 16 -78 17 -903 17 -829 0 -884 -1 -896 -17 -13 -17 -15 -17 -28
0 -11 14 -31 17 -129 17 -110 0 -116 -1 -123 -22 l-7 -22 -17 22 c-15 18 -29
22 -106 24 l-89 3 -3 85 c-2 73 -6 87 -24 101 l-21 17 21 11 c21 11 22 19 22
121 0 93 -3 110 -17 119 -17 9 -17 10 0 28 16 18 17 104 17 1373 0 1245 -1
1355 -17 1372 -15 17 -15 19 0 36 14 15 17 40 17 120 0 91 -2 103 -20 114 -25
16 -25 25 0 33 18 6 20 15 20 96 l0 89 94 0 c86 0 95 2 101 20 3 11 9 20 13
20 4 0 13 -9 20 -20z m-283 -356 l0 -78 -100 -58 c-55 -32 -106 -61 -113 -66
-16 -10 -18 -2632 -2 -2641 6 -4 57 -33 115 -66 l105 -60 0 -77 c0 -66 -3 -79
-19 -88 -11 -5 -27 -10 -35 -10 -21 0 -21 26 -1 34 13 4 15 19 13 67 l-3 62
-112 66 -113 66 3 1329 2 1328 113 66 112 65 0 60 c0 45 -4 63 -17 73 -16 12
-16 15 -3 23 10 7 21 6 35 -3 17 -12 20 -24 20 -92z m2985 85 c0 -4 -9 -13
-20 -19 -18 -10 -21 -19 -18 -68 l3 -57 118 -69 117 -68 0 -1327 -1 -1326
-119 -70 -120 -69 0 -54 c0 -44 4 -57 23 -72 19 -16 20 -19 5 -25 -9 -4 -26
-2 -37 5 -19 9 -21 20 -21 89 l0 78 115 64 114 64 0 1315 1 1315 -93 54 c-50
29 -102 60 -114 68 -21 12 -23 21 -23 92 0 71 2 79 23 88 23 11 47 7 47 -8z
m-3089 -49 c28 -15 25 -64 -5 -83 -21 -14 -26 -14 -45 -1 -26 19 -28 69 -3 83
22 13 29 13 53 1z m3180 0 c27 -15 25 -64 -4 -83 -20 -13 -25 -13 -45 1 -27
18 -30 66 -4 81 22 13 29 13 53 1z m-3089 -217 c17 -15 18 -70 18 -1342 0
-1321 0 -1327 -20 -1344 -17 -14 -25 -15 -42 -6 l-22 12 22 15 22 14 0 1309
c0 1287 0 1309 -19 1321 -15 9 -17 15 -9 25 14 17 28 16 50 -4z m2994 5 c4 -7
-2 -18 -14 -26 l-22 -14 0 -1303 0 -1304 26 -20 25 -20 -21 -11 c-18 -9 -25
-8 -41 6 -19 17 -19 49 -19 1342 0 1219 1 1327 17 1344 19 21 39 23 49 6z
m-3068 -1344 l2 -1279 -22 -16 c-20 -15 -24 -15 -45 -2 l-23 15 0 1283 0 1282
23 10 c16 8 27 8 42 -2 20 -12 20 -25 23 -1291z m3157 1294 l25 -11 0 -1283 0
-1283 -21 -12 c-16 -8 -28 -8 -45 0 l-24 11 0 1276 c0 1175 1 1279 17 1296 19
21 16 21 48 6z m-3270 -2718 c3 -6 -2 -21 -12 -34 -16 -20 -22 -68 -14 -117 1
-4 53 -37 116 -74 l114 -67 3 -97 3 -96 100 -3 100 -3 68 -109 68 -110 63 0
c55 0 66 3 78 22 l15 22 12 -22 c9 -17 9 -26 -1 -42 -11 -17 -23 -20 -94 -20
l-82 0 -73 115 -74 115 -112 0 -113 0 0 108 0 107 -115 68 -115 68 0 78 c0 46
5 82 12 89 15 15 45 16 53 2z m3373 -2 c7 -7 12 -43 12 -89 l0 -78 -97 -57
c-54 -31 -108 -63 -120 -71 -22 -13 -23 -20 -23 -118 l0 -105 -109 0 -109 0
-72 -115 -72 -115 -82 0 c-71 0 -83 3 -94 20 -10 16 -10 25 -1 42 l12 22 15
-22 c12 -19 24 -22 76 -22 l61 0 70 110 70 109 100 3 100 3 3 97 3 96 114 68
115 68 0 58 c0 46 -4 60 -19 70 -15 9 -17 15 -9 25 13 16 40 17 56 1z m-3283
-50 c19 -9 25 -19 25 -45 0 -41 -34 -62 -69 -44 -26 15 -29 68 -3 87 21 16 16
16 47 2z m3187 -5 c44 -39 0 -111 -51 -84 -30 17 -29 74 2 89 29 14 28 14 49
-5z m-3272 -213 c12 -7 10 -13 -10 -32 l-25 -23 3 -193 3 -192 204 0 c200 0
204 0 220 23 15 21 16 21 30 3 12 -16 12 -22 -2 -42 l-15 -24 -239 0 -239 0 0
233 c0 233 0 234 23 245 28 14 29 14 47 2z m3355 -2 l25 -11 0 -234 0 -233
-239 0 -239 0 -15 24 c-14 20 -14 26 -2 42 14 18 15 18 30 -3 16 -23 20 -23
221 -23 l204 0 0 196 c0 191 -1 196 -22 215 -20 16 -21 20 -8 29 19 12 14 12
45 -2z m-3245 -180 c0 -116 0 -118 23 -119 12 0 66 0 119 -1 81 0 100 -3 114
-19 15 -17 16 -20 0 -44 l-16 -25 -165 0 -165 0 0 159 c0 153 1 159 22 173 17
12 29 13 45 5 22 -10 23 -15 23 -129z m3180 -50 l0 -158 -163 0 c-149 0 -165
2 -181 19 -22 24 -13 57 17 65 12 3 70 6 130 6 l107 0 0 118 c0 114 1 119 23
129 16 8 27 6 44 -6 21 -15 22 -22 23 -173z m-2539 -98 l67 -105 837 0 838 0
66 107 66 108 84 -3 c90 -2 112 -15 97 -53 -7 -18 -8 -18 -26 4 -15 18 -28 22
-77 22 l-58 0 -71 -113 -70 -112 -850 -2 -849 -2 -70 112 -70 112 -62 3 c-55
3 -63 1 -74 -19 -11 -22 -12 -22 -25 -4 -12 16 -11 21 3 37 14 16 29 18 97 16
l80 -3 67 -105z m1774 90 c17 -19 17 -22 3 -36 -15 -15 -17 -14 -27 5 l-12 21
-834 0 -834 0 -12 -21 c-10 -19 -12 -20 -27 -5 -14 14 -14 17 3 36 18 20 26
20 870 20 844 0 852 0 870 -20z m-1880 -84 c24 -36 5 -66 -39 -66 -25 0 -36 6
-46 25 -12 22 -11 27 5 45 25 27 61 25 80 -4z m1820 4 c15 -17 16 -24 7 -45
l-12 -25 -805 0 -805 0 -12 25 c-9 21 -8 28 7 45 18 20 30 20 810 20 780 0
792 0 810 -20z m280 -4 c22 -34 2 -66 -40 -66 -52 0 -71 36 -38 72 23 25 59
23 78 -6z"/>
</g>
</svg>
